<svg xmlns="http://www.w3.org/2000/svg" viewBox="0 0 290.1 600.74"><defs><style>.cls-1{fill:#3f3d56;}.cls-2{fill:#2f2e41;}.cls-3{fill:#a0616a;}.cls-4{fill:#c49435;}.cls-5{fill:#fff;}.cls-6{opacity:0.2;isolation:isolate;}.cls-7{fill:#d0cde1;}.cls-8{fill:none;}</style></defs><g id="レイヤー_2" data-name="レイヤー 2"><g id="a2995fdc-ba4a-4390-a70c-27b90cf54d89"><rect class="cls-1" x="99.3" y="189.1" width="86.8" height="1.87" transform="translate(-72.79 89.83) rotate(-28.16)"/><path class="cls-2" d="M123.62,442.62s0,84.71-19.44,106.93c0,0-4.17,11.11-5.56,15.28a57.72,57.72,0,0,1-2.78,6.94v5.56s-37.49-4.17-41.66-13.89l6.94-8.33s1.39-1.39,0-5.56,2.78-4.16,2.78-4.16l9.72-22.23-1.39-91.65,7-126.38,59.71-2.78Z"/><path class="cls-2" d="M93.06,569s9.73,29.17,0,30.56-94.43,2.78-93-8.34,29.16-9.72,29.16-9.72l29.17-18Z"/><path class="cls-2" d="M179.17,305.13s2.78,18.05-8.33,37.49-4.17,84.72-4.17,84.72l98.6,86.1s-19.44,33.33-26.38,31.95-116.66-90.28-116.66-90.28l-43-144.43Z"/><path class="cls-2" d="M263.92,509.76s29.84,7.41,25.8,16.36-48.21,81.25-56.85,74.13,7.41-29.84,7.41-29.84l.36-34.3Z"/><path class="cls-3" d="M157,46.82a32,32,0,0,1-38.12,31.33,30.61,30.61,0,0,1-8.21-2.83A31.94,31.94,0,1,1,157,46.82Z"/><path class="cls-3" d="M150.14,58.08l-1.41,41.11-26.88,10.62s-2.64-42.09-6.36-44.42S150.14,58.08,150.14,58.08Z"/><path class="cls-4" d="M115.29,114.86s37.49-37.49,47.21-36.1,9.73,5.55,9.73,8.33-2.78,4.16,0,5.55,5.55,0,5.55,4.17,25,45.83,16.67,91.66-18.06,68-13.89,93S182,312.07,182,312.07,77.79,320.4,76.4,310.68s4.17-4.16-2.78-11.11-4.16-6.94-4.16-11.11S100,114.86,115.29,114.86Z"/><path class="cls-5" d="M134.73,303.74S118.06,344,105.56,334.29s5.56-43.05,5.56-43.05Z"/><path class="cls-4" d="M175,117.64s32.63,3.74,20.48,63.67-59.36,129.37-59.36,129.37l-31.94-15.27,41.66-81.94-9.72-51.39S130.56,113.48,175,117.64Z"/><polygon class="cls-6" points="146.53 214.16 100.7 290.55 104.87 294.71 146.53 214.16"/><polygon class="cls-6" points="170.79 249.76 134.03 309.99 146.53 309.99 170.79 249.76"/><rect class="cls-6" x="104.12" y="356.2" width="1.98" height="102.55" transform="translate(-138.31 64.21) rotate(-20.88)"/><circle class="cls-7" cx="115.48" cy="120.51" r="1.98"/><line class="cls-8" x1="115.48" y1="120.51" x2="98.69" y2="174.84"/><path class="cls-7" d="M98.69,175.83a1,1,0,0,0,.94-.7l16.8-54.32a1,1,0,1,0-1.89-.59h0L97.75,174.55a1,1,0,0,0,.65,1.24.92.92,0,0,0,.29,0Z"/><path class="cls-5" d="M118.6,71.28l-8,7.59c-8.22-4.13-16.16-15.28-18.4-24.42l10.47-4.38C103.37,59.38,110,65.58,118.6,71.28Z"/><path class="cls-5" d="M120.59,54h-.09l-18.57-2.66a.66.66,0,0,1,.19-1.31h0l18.56,2.65a.66.66,0,0,1-.09,1.32Z"/><path class="cls-5" d="M117.94,71.28a.66.66,0,0,1-.66-.66.62.62,0,0,1,.08-.33l6.15-11a.66.66,0,0,1,1.16.65h0l-6.15,10.95A.67.67,0,0,1,117.94,71.28Z"/><path class="cls-2" d="M139.46,66c-2.58-1.37-5.59-1.65-8.38-2.5-10-3-16.73-14.36-14.58-24.61a12.6,12.6,0,0,0,.52-4c-.37-3-3.48-5-6.45-5.69s-6.15-.59-9-1.71c-4.4-1.72-7.31-6.24-8-10.92s.76-9.44,3-13.59L97.72,6A11.35,11.35,0,0,0,101.23.78a7.24,7.24,0,0,1,5.52,4.44c1.72,1,2-3.17,3.88-3.78A3.43,3.43,0,0,1,113,2c3.84,1.8,8.3.26,12.43-.73a46.85,46.85,0,0,1,21.71,0c4.74,1.14,9.44,3.11,12.83,6.61,2.79,2.87,4.53,6.59,6,10.31,3.65,9.16,6.05,19.08,4.85,28.86a40.84,40.84,0,0,1-9.63,21.65C158.45,71.85,149.48,82.9,144.57,81,138.39,78.65,146.74,69.86,139.46,66Z"/></g></g></svg>