<svg xmlns="http://www.w3.org/2000/svg" viewBox="0 0 275.91 586.11"><defs><style>.cls-1{fill:#ffb8b8;}.cls-2{fill:#2f2e41;}.cls-3{fill:#fff;}.cls-4{fill:#c49435;}.cls-5{opacity:0.2;isolation:isolate;}</style></defs><g id="レイヤー_2" data-name="レイヤー 2"><g id="a2995fdc-ba4a-4390-a70c-27b90cf54d89"><path class="cls-1" d="M223.53,470.78l41.16,61-38.32,38.32-5-9.94,8.52-19.87s-1.42-18.45-6.39-23.41-27-34.78-27-34.78Z"/><path class="cls-2" d="M171,273.5s7.8,12.36-8.52,65.58c0,0,76.13,128.49,64.07,137s-44.71,27.36-53.23,21.69-70.44-198-70.44-198Z"/><path class="cls-2" d="M257.24,520.81l12.42,12.42c6.38,6.38,10.64,15.61-1.42,23.41s-53.93,36.91-68.13,27.68,17-17.74,17-17.74,5.16-19.14,7.9-14.89,2.74,12.76,2.74,12.76Z"/><path class="cls-1" d="M107.15,504.13S84.45,546,84.45,551s1.41,19.16,1.41,19.16L42.58,580.77l-14.9-7.09,5-12.78s27-9.22,32.65-27,12.06-36.19,12.06-36.19Z"/><circle class="cls-1" cx="133.41" cy="57.78" r="29.8"/><path class="cls-1" d="M125.6,83.32l14.23,40.89L171,110.29s-21.29-32.64-21.29-36.9Z"/><path class="cls-2" d="M121.35,228.8H159s27,41.16,11.35,84.44c-2.39,6.63-4.76,15.92-7.13,26.9-5.45,25.24-10.87,59.44-16.43,90.87-7.81,44.14-15.88,82.81-24.66,83.51-17.74,1.42-52.24,1.18-52.24-5.91S93,296.21,93,296.21l5-8.51.94-37.1A22.37,22.37,0,0,1,121.35,228.8Z"/><path class="cls-2" d="M84.09,550.61s8.16,13.84,6,23.78-5.67,8.51-21.29,9.93S0,585.74,0,575.8,41.52,553,41.69,556.94s1.6,11.77-2.66,13.19-.36.35-.36.35Z"/><path class="cls-3" d="M125.61,317.37s-3.09,50.41-23.68,35.4,8-42.11,8-42.11Z"/><path class="cls-4" d="M166.7,251a6,6,0,0,0,6.12-.72,6.22,6.22,0,0,0,2.32-4c3-17.16,6.6-64.73,8.69-88.79,2.62-30.18-10.46-53.56-10.57-53.71l-7.71-10.6a6.06,6.06,0,0,0-7.25-2s-24.07,25-24.16,25.94c-.38,4.14-3.24,13.31-18.18,28.25C99.62,161.69,99.53,176,99.9,179.94q0,.39,0,.78a17.44,17.44,0,0,0,.72,5.28c6.84,21.58,1.49,47.41-7.12,74.37A6.08,6.08,0,0,0,96,267c2.51,1.71-.5-.83.4.27,5.93,7.27,14.46-2.86,24.23-13.91,3.4-3.86,7.25-8.22,11.8-12.76,6.24-6.25,18.18,8,23.73,8A25.7,25.7,0,0,1,166.7,251Z"/><path class="cls-4" d="M170,114.81S185.6,128,176.74,145s-7.67,29.62-7.67,29.62-2.36,117.13-30,111.44l-12.59,34.75-22.74-8.21L116.86,282s-10.53-.65-7.45-7.83c2.16-5,13.8-59.72,20.54-91.82,2.85-13.6,4.83-23.15,4.83-23.15S143.74,111.26,170,114.81Z"/><polygon class="cls-5" points="173.28 174.33 164.52 231.84 169.25 170.35 173.28 174.33"/><path class="cls-2" d="M100.89,44.57s-5-39,35.88-26.21c0,0,29.19-5.35,38.77,31.17l9.7,38.29-4.73-2.57-2.2,4.81L170.65,92l-3.28-6.5-1.58,7.89-62.72,6.26S131.16,83,131.61,53.26l-5.35,5.66Z"/><polygon class="cls-5" points="147.53 433.25 161.52 340.06 150.14 440.66 147.53 433.25"/><circle class="cls-2" cx="170.39" cy="18.75" r="15.77"/><path class="cls-2" d="M154.14,14.89A15.75,15.75,0,0,1,169.9.15c-.32,0-.65-.1-1-.12a15.77,15.77,0,0,0-2,31.48h0c.33,0,.66,0,1,0A15.75,15.75,0,0,1,154.14,14.89Z"/><polygon class="cls-5" points="125.38 192.25 111.51 266.62 129.49 184.48 125.38 192.25"/><path class="cls-3" d="M126.25,79.26l-8.09,6.09c-8.33-4.19-14.57-13.89-16.84-23.14l8.81-4.45C110.82,67.2,117.52,73.48,126.25,79.26Z"/><path class="cls-3" d="M129.61,59.11H109.46a.68.68,0,0,1,0-1.35h20.15a.68.68,0,0,1,0,1.35Z"/><path class="cls-3" d="M125.58,79.26a.67.67,0,0,1-.67-.67.66.66,0,0,1,0-.25l5.38-13.44a.67.67,0,0,1,1.24.5h0L126.2,78.83A.67.67,0,0,1,125.58,79.26Z"/><ellipse class="cls-1" cx="130.96" cy="60.14" rx="4.93" ry="6.9"/></g></g></svg>