<svg width="199" height="168" viewBox="0 0 199 168" fill="none" xmlns="http://www.w3.org/2000/svg">
<path d="M50.0566 46.8304L28.8374 58.2017L29.0824 58.6599L50.3017 47.2887L50.0566 46.8304Z" fill="#3F3D56"/>
<path d="M34.2774 122.863C34.2774 122.863 34.2774 146.379 28.886 152.548C28.886 152.548 27.7295 155.632 27.3456 156.79C27.1297 157.448 26.8724 158.091 26.5754 158.716V160.258C26.5754 160.258 16.1765 159.103 15.0225 156.403L16.9467 154.09C16.9467 154.09 17.3331 153.706 16.9467 152.548C16.5604 151.39 17.7169 151.393 17.7169 151.393L20.4237 145.234L20.0275 119.779L21.9542 84.6973L38.5123 83.9263L34.2774 122.863Z" fill="#2F2E41"/>
<path d="M25.8051 157.945C25.8051 157.945 28.5119 166.043 25.8051 166.427C23.0984 166.811 -0.381615 167.198 0.00471415 164.114C0.391044 161.03 8.09057 161.416 8.09057 161.416L16.1764 156.403L25.8051 157.945Z" fill="#2F2E41"/>
<path d="M49.6788 84.6973C49.6788 84.6973 50.449 89.7104 47.3682 95.1078C44.2874 100.505 46.2141 118.624 46.2141 118.624L73.5549 142.519C73.5549 142.519 68.1636 151.769 66.2393 151.388C64.315 151.006 33.8909 126.334 33.8909 126.334L21.9541 86.2295L49.6788 84.6973Z" fill="#2F2E41"/>
<path d="M73.1783 141.504C73.1783 141.504 81.4536 143.558 80.334 146.044C79.2143 148.53 66.9675 168.599 64.5707 166.621C62.174 164.643 66.623 158.339 66.623 158.339L66.7238 148.818L73.1783 141.504Z" fill="#2F2E41"/>
<path d="M43.517 12.9934C43.5158 14.3025 43.2251 15.5951 42.6659 16.7784C42.1066 17.9617 41.2926 19.0064 40.2822 19.8374C39.2719 20.6685 38.0903 21.2653 36.8223 21.5851C35.5543 21.9049 34.2313 21.9396 32.9483 21.6869C32.1565 21.5343 31.3903 21.2705 30.6721 20.9035C29.5317 20.3277 28.5291 19.5117 27.7332 18.5117C26.9372 17.5116 26.3667 16.351 26.0608 15.1095C25.8917 14.4162 25.8091 13.7046 25.8147 12.9909C25.8147 11.8263 26.0439 10.6731 26.489 9.59716C26.9342 8.5212 27.5867 7.54356 28.4093 6.72005C29.2319 5.89654 30.2085 5.2433 31.2832 4.79763C32.358 4.35195 33.5099 4.12256 34.6732 4.12256C35.8366 4.12256 36.9885 4.35195 38.0632 4.79763C39.138 5.2433 40.1146 5.89654 40.9371 6.72005C41.7597 7.54356 42.4122 8.5212 42.8574 9.59716C43.3026 10.6731 43.5317 11.8263 43.5317 12.9909L43.517 12.9934Z" fill="#A0616A"/>
<path d="M41.6296 16.1201L41.2408 27.5308L33.7874 30.4869C33.7874 30.4869 33.0492 18.8028 32.0255 18.1549C31.0019 17.507 41.6296 16.1201 41.6296 16.1201Z" fill="#A0616A"/>
<path d="M31.9667 31.8809C31.9667 31.8809 42.3631 21.4729 45.0576 21.8596C47.7521 22.2464 47.7644 23.4018 47.7644 24.1728C47.7644 24.9439 46.9942 25.3282 47.7644 25.7149C48.5346 26.1017 49.3048 25.7149 49.3048 26.8703C49.3048 28.0256 56.2365 39.5915 53.926 52.3152C51.6154 65.0388 48.9086 71.2024 50.0651 78.1444C51.2216 85.0863 50.449 86.626 50.449 86.626C50.449 86.626 21.5678 88.9392 21.1839 86.2294C20.8 83.5196 22.338 85.074 20.4137 83.1451C18.4894 81.2163 19.2572 81.2187 19.2572 80.0609C19.2572 78.9031 27.7294 31.8809 31.9667 31.8809Z" fill="#C49435"/>
<path d="M37.358 84.3128C37.358 84.3128 32.7368 95.4919 29.2697 92.7944C25.8025 90.097 30.8101 80.8418 30.8101 80.8418L37.358 84.3128Z" fill="white"/>
<path d="M48.5246 32.6523C48.5246 32.6523 57.5726 33.6894 54.2039 50.3274C50.8352 66.9655 37.7418 86.2296 37.7418 86.2296L28.8833 81.99L40.4486 59.2451L37.7418 44.9793C37.7418 44.9793 36.2014 31.4969 48.5246 32.6523Z" fill="#C49435"/>
<path opacity="0.2" d="M40.6309 59.4468L27.9238 80.6496L29.0779 81.8074L40.6309 59.4468Z" fill="black"/>
<path opacity="0.2" d="M47.3587 69.3276L37.1665 86.047H40.6312L47.3587 69.3276Z" fill="black"/>
<path opacity="0.2" d="M24.3408 99.7056L23.8281 99.9014L33.963 126.499L34.4757 126.304L24.3408 99.7056Z" fill="black"/>
<path d="M32.0209 33.9996C32.324 33.9996 32.5696 33.7536 32.5696 33.4502C32.5696 33.1468 32.324 32.9009 32.0209 32.9009C31.7178 32.9009 31.4722 33.1468 31.4722 33.4502C31.4722 33.7536 31.7178 33.9996 32.0209 33.9996Z" fill="#D0CDE1"/>
<path d="M27.3629 48.8073C27.4217 48.8069 27.4789 48.7879 27.5262 48.7529C27.5735 48.718 27.6085 48.6689 27.6262 48.6127L32.2818 33.5315C32.3034 33.4623 32.2965 33.3873 32.2629 33.3231C32.2292 33.2589 32.1714 33.2107 32.1022 33.1891C32.033 33.1676 31.9581 33.1744 31.894 33.2081C31.8298 33.2418 31.7817 33.2997 31.7602 33.369L27.1045 48.4501C27.0919 48.4912 27.089 48.5347 27.0961 48.577C27.1032 48.6194 27.1201 48.6596 27.1454 48.6943C27.1707 48.729 27.2038 48.7573 27.242 48.7769C27.2802 48.7965 27.3224 48.8069 27.3654 48.8073H27.3629Z" fill="#D0CDE1"/>
<path d="M32.8748 19.7826L30.6601 21.8913C28.3791 20.7434 26.1792 17.6493 25.5566 15.112L28.4603 13.895C28.662 16.4816 30.4977 18.2011 32.8748 19.7826Z" fill="white"/>
<path d="M33.4382 14.9987H33.4112L28.2634 14.2597C28.2396 14.2564 28.2167 14.2484 28.196 14.2362C28.1753 14.224 28.1573 14.2078 28.1429 14.1885C28.1285 14.1693 28.118 14.1474 28.1121 14.1241C28.1061 14.1008 28.1049 14.0766 28.1084 14.0528C28.1151 14.0045 28.1406 13.9609 28.1793 13.9314C28.218 13.9018 28.2668 13.8888 28.3151 13.8951L33.4628 14.6341C33.5082 14.6415 33.5492 14.6656 33.5777 14.7016C33.6063 14.7376 33.6204 14.783 33.6174 14.8289C33.6143 14.8748 33.5942 14.9179 33.5611 14.9497C33.528 14.9816 33.4842 15 33.4382 15.0012V14.9987Z" fill="white"/>
<path d="M32.7026 19.7829C32.6785 19.7832 32.6546 19.7787 32.6322 19.7697C32.6098 19.7607 32.5895 19.7473 32.5723 19.7304C32.5551 19.7134 32.5415 19.6932 32.5322 19.6709C32.5229 19.6487 32.5181 19.6247 32.5181 19.6006C32.5175 19.5685 32.5261 19.5369 32.5427 19.5095L34.248 16.4696C34.2713 16.4276 34.3102 16.3966 34.3563 16.3832C34.4024 16.3698 34.4519 16.3752 34.494 16.3981C34.535 16.4224 34.5652 16.4614 34.5785 16.5071C34.5917 16.5529 34.587 16.602 34.5654 16.6445L32.8749 19.6893C32.8581 19.7197 32.8329 19.7447 32.8024 19.7613C32.7719 19.7779 32.7373 19.7854 32.7026 19.7829Z" fill="white"/>
<path d="M38.6697 18.3197C37.9537 17.9403 37.1195 17.8615 36.3444 17.625C33.5687 16.7825 31.7084 13.6392 32.3014 10.7963C32.4123 10.4318 32.4613 10.0513 32.4466 9.67056C32.3433 8.82806 31.482 8.2861 30.6577 8.09149C29.8333 7.89688 28.9524 7.92644 28.165 7.61605C26.9346 7.13814 26.1374 5.89164 25.9504 4.58601C25.7634 3.28039 26.1595 1.96245 26.7845 0.812021L27.0823 1.67176C27.5407 1.28784 27.8818 0.782424 28.0666 0.213405C28.4058 0.270109 28.7247 0.413183 28.9927 0.628885C29.2608 0.844587 29.4689 1.12567 29.5971 1.44513C30.0745 1.72596 30.1434 0.565677 30.6724 0.395699C30.8939 0.324259 31.1203 0.459749 31.3319 0.558287C32.3974 1.05098 33.6351 0.629726 34.7769 0.353821C36.7563 -0.11794 38.8188 -0.11794 40.7982 0.353821C42.1147 0.669141 43.4164 1.21602 44.3564 2.18908C45.129 2.98724 45.6113 4.01942 46.0223 5.0516C47.0312 7.59387 47.698 10.3455 47.3634 13.0627C47.0869 15.2854 46.1587 17.3762 44.696 19.071C43.9331 19.9505 41.4454 23.0126 40.0822 22.4952C38.372 21.8301 40.6899 19.3888 38.6697 18.3197Z" fill="#2F2E41"/>
<path d="M184.588 135.654L195.911 152.453L185.369 163.007L183.994 160.269L186.338 154.797C186.338 154.797 185.964 149.724 184.588 148.358C183.213 146.992 177.161 138.78 177.161 138.78L184.588 135.654Z" fill="#FFB8B8"/>
<path d="M170.146 81.3223C170.146 81.3223 172.294 84.7262 167.807 99.3748C167.807 99.3748 188.75 134.761 185.433 137.105C182.115 139.448 173.133 144.64 170.792 143.078C168.451 141.517 151.412 88.5488 151.412 88.5488L170.146 81.3223Z" fill="#2F2E41"/>
<path d="M193.864 149.432L197.281 152.853C199.039 154.61 200.208 157.152 196.89 159.3C193.573 161.448 182.054 169.462 178.151 166.923C174.247 164.384 182.828 162.037 182.828 162.037C182.828 162.037 184.247 156.766 185.001 157.937C185.755 159.107 185.755 161.451 185.755 161.451L193.864 149.432Z" fill="#2F2E41"/>
<path d="M152.578 144.838C152.578 144.838 146.331 156.383 146.331 157.738C146.331 159.093 146.722 163.015 146.722 163.015L134.813 165.945L130.714 163.993L132.089 160.473C132.089 160.473 139.517 157.934 141.071 153.037C142.625 148.14 144.389 143.07 144.389 143.07L152.578 144.838Z" fill="#FFB8B8"/>
<path d="M159.8 30.12C164.327 30.12 167.998 26.4456 167.998 21.913C167.998 17.3804 164.327 13.7061 159.8 13.7061C155.272 13.7061 151.602 17.3804 151.602 21.913C151.602 26.4456 155.272 30.12 159.8 30.12Z" fill="#FFB8B8"/>
<path d="M157.654 28.9466L161.566 40.2078L170.146 36.3742C170.146 36.3742 164.289 27.3851 164.289 26.2119L157.654 28.9466Z" fill="#FFB8B8"/>
<path d="M156.482 69.0123H166.828C166.828 69.0123 174.256 80.3478 169.95 92.2671C169.293 94.093 168.641 96.6515 167.989 99.6726C166.49 106.627 164.999 116.045 163.469 124.701C161.321 136.857 159.101 147.507 156.685 147.7C151.805 148.091 142.314 148.025 142.314 146.072C142.314 144.12 148.672 87.577 148.672 87.577L150.047 85.2334L150.306 75.016C150.347 73.4056 151.016 71.8754 152.171 70.7531C153.325 69.6309 154.873 69.006 156.482 69.0123Z" fill="#2F2E41"/>
<path d="M157.654 93.4041C157.654 93.4041 156.804 107.287 151.143 103.153C145.481 99.0195 153.343 91.5562 153.343 91.5562L157.654 93.4041Z" fill="white"/>
<path d="M168.958 75.1203C169.23 75.2428 169.53 75.289 169.827 75.2541C170.123 75.2192 170.405 75.1044 170.641 74.922C170.988 74.6506 171.216 74.2561 171.279 73.8204C172.105 69.0946 173.095 55.9937 173.67 49.3676C174.391 41.056 170.793 34.6171 170.762 34.5758L168.633 31.6676C168.411 31.3643 168.094 31.1449 167.732 31.045C167.37 30.945 166.984 30.9703 166.639 31.1168C166.639 31.1168 160.017 38.0018 159.992 38.2607C159.888 39.4008 159.101 41.9263 154.991 46.0407C150.499 50.538 150.471 54.4653 150.573 55.5641C150.573 55.6357 150.573 55.7073 150.573 55.7789C150.564 56.2709 150.631 56.7614 150.771 57.233C152.656 63.1762 151.181 70.2898 148.813 77.7146C148.723 78.0502 148.74 78.4052 148.861 78.7308C148.981 79.0564 149.2 79.3364 149.487 79.5323C150.18 80.0032 149.349 79.3037 149.597 79.6066C151.228 81.6088 153.574 78.819 156.262 75.773C157.197 74.7127 158.257 73.512 159.508 72.2617C161.225 70.5404 164.509 74.4649 166.036 74.4649C167.045 74.4736 168.041 74.697 168.958 75.1203Z" fill="#C49435"/>
<path d="M169.868 37.6187C169.868 37.6187 174.157 41.2402 171.722 45.9358C169.287 50.6314 169.609 54.0931 169.609 54.0931C169.609 54.0931 168.96 86.3509 161.356 84.7838L157.893 94.354L151.64 92.093L155.255 83.6519C155.255 83.6519 152.358 83.4729 153.205 81.4955C153.8 80.1185 157.002 65.0486 158.856 56.2082C159.643 52.4628 160.185 49.8327 160.185 49.8327C160.185 49.8327 162.641 36.641 169.868 37.6187Z" fill="#C49435"/>
<path opacity="0.2" d="M170.77 54.0106L168.357 69.8489L169.659 52.9146L170.77 54.0106Z" fill="black"/>
<path d="M150.853 18.2748C150.853 18.2748 149.478 7.53416 160.724 11.0565C160.724 11.0565 168.757 9.58314 171.389 19.6408L174.058 30.1859L172.759 29.4754L172.154 30.8028L170.044 31.3508L169.144 29.5607L168.707 31.7336L151.453 33.4576C151.453 33.4576 159.181 28.8805 159.304 20.6818L157.833 22.2406L150.853 18.2748Z" fill="#2F2E41"/>
<path opacity="0.2" d="M163.687 125.318L167.532 99.6533L164.405 127.359L163.687 125.318Z" fill="black"/>
<path d="M169.972 15.5069C172.368 15.5069 174.311 13.5625 174.311 11.1639C174.311 8.76526 172.368 6.8208 169.972 6.8208C167.577 6.8208 165.634 8.76526 165.634 11.1639C165.634 13.5625 167.577 15.5069 169.972 15.5069Z" fill="#2F2E41"/>
<path d="M165.502 10.1012C165.573 8.99921 166.061 7.96572 166.866 7.21142C167.672 6.45713 168.735 6.03882 169.838 6.0418C169.75 6.0418 169.659 6.01426 169.563 6.00875C168.414 5.93571 167.284 6.32236 166.42 7.08365C165.557 7.84493 165.03 8.91849 164.957 10.0682C164.885 11.2178 165.271 12.3494 166.031 13.214C166.792 14.0786 167.864 14.6053 169.012 14.6784C169.103 14.6784 169.194 14.6784 169.287 14.6784C168.193 14.5411 167.192 13.9911 166.489 13.1406C165.786 12.2901 165.433 11.2031 165.502 10.1012Z" fill="#2F2E41"/>
<path opacity="0.2" d="M157.593 58.946L153.775 79.4276L158.724 56.8062L157.593 58.946Z" fill="black"/>
<path d="M157.83 27.8288L155.604 29.506C153.313 28.3521 151.596 25.6807 150.972 23.1332L153.395 21.9077C153.585 24.5075 155.428 26.237 157.83 27.8288Z" fill="white"/>
<path d="M158.754 22.2795H153.211C153.162 22.2788 153.115 22.2587 153.081 22.2237C153.046 22.1886 153.027 22.1414 153.027 22.0922C153.027 22.0433 153.046 21.9964 153.081 21.9618C153.115 21.9272 153.162 21.9077 153.211 21.9077H158.754C158.803 21.9077 158.85 21.9272 158.885 21.9618C158.919 21.9964 158.939 22.0433 158.939 22.0922C158.939 22.1414 158.919 22.1886 158.885 22.2237C158.85 22.2587 158.803 22.2788 158.754 22.2795Z" fill="white"/>
<path d="M157.646 27.8281C157.621 27.8281 157.597 27.8233 157.575 27.8138C157.552 27.8044 157.532 27.7905 157.514 27.7731C157.497 27.7557 157.484 27.735 157.475 27.7123C157.466 27.6896 157.461 27.6653 157.462 27.6408C157.461 27.6171 157.465 27.5936 157.475 27.572L158.953 23.8734C158.971 23.8277 159.006 23.7912 159.052 23.7718C159.097 23.7525 159.148 23.7518 159.193 23.7701C159.239 23.7884 159.275 23.824 159.295 23.8692C159.314 23.9144 159.315 23.9654 159.296 24.0111L157.816 27.7097C157.803 27.7443 157.78 27.7741 157.749 27.7952C157.719 27.8164 157.683 27.8278 157.646 27.8281Z" fill="white"/>
<path d="M159.128 24.4631C159.877 24.4631 160.484 23.6124 160.484 22.5629C160.484 21.5134 159.877 20.6626 159.128 20.6626C158.379 20.6626 157.772 21.5134 157.772 22.5629C157.772 23.6124 158.379 24.4631 159.128 24.4631Z" fill="#FFB8B8"/>
</svg>
